<?xml version="1.0" encoding="iso-8859-1" standalone="no"?>
<!DOCTYPE svg PUBLIC "-//W3C//DTD SVG 1.0//EN" "http://www.w3.org/TR/SVG/DTD/svg10.dtd">
<svg viewBox="0 0 768 972" width="100%" height="100%" xmlns="http://www.w3.org/2000/svg" xmlns:xlink="http://www.w3.org/1999/xlink">
	<style type="text/css">
	<![CDATA[
		g.bars { fill: #f2f2f2; }
		g.text { fill: #cdcdcd; font-size: 14px; }
	]]>
	</style>
	<g id="mainlayer">
		<line x1="24" y1="20" x2="24" y2="932" stroke-width="1" stroke="#cdcdcd" fill="none" stroke-dasharray="1, 8" />
		<g class="bars" fill="#f2f2f2">
			<rect x="32" y="20" width="45" height="912"/>
			<rect x="92" y="20" width="45" height="912"/>
			<rect x="152" y="20" width="45" height="912"/>
			<rect x="212" y="20" width="45" height="912"/>
			<rect x="272" y="20" width="45" height="912"/>
			<rect x="332" y="20" width="45" height="912"/>
			<rect x="392" y="20" width="45" height="912"/>
			<rect x="452" y="20" width="45" height="912"/>
			<rect x="512" y="20" width="45" height="912"/>
			<rect x="572" y="20" width="45" height="912"/>
			<rect x="632" y="20" width="45" height="912"/>
			<rect x="692" y="20" width="45" height="912"/>
		</g>
		<line x1="745" y1="20" x2="745" y2="932" stroke-width="1" stroke="#cdcdcd" fill="none" stroke-dasharray="1, 8" />
		<g class="text" fill="#cdcdcd" font-size="14px">
			<!-- pos: rect.x + (rect.width/2) - font-size / 2 -->
			<text x="47" y="14">01</text>
			<text x="107" y="14">02</text>
			<text x="167" y="14">03</text>
			<text x="227" y="14">04</text>
			<text x="287" y="14">05</text>
			<text x="347" y="14">06</text>
			<text x="407" y="14">07</text>
			<text x="467" y="14">08</text>
			<text x="527" y="14">09</text>
			<text x="587" y="14">10</text>
			<text x="647" y="14">11</text>
			<text x="707" y="14">12</text>
		</g>
	</g>
</svg>

