<?xml version="1.0" encoding="iso-8859-1" standalone="no"?>
<!-- Creative Common License BY-NC-SA 3.0 Copyright: Philip Mateescu (http://philipm.at/projects/goodnotes_templates.html) -->
<!DOCTYPE svg PUBLIC "-//W3C//DTD SVG 1.0//EN" "http://www.w3.org/TR/SVG/DTD/svg10.dtd">
<svg viewBox="0 0 768 972" width="100%" height="100%" xmlns="http://www.w3.org/2000/svg" xmlns:xlink="http://www.w3.org/1999/xlink">
	<style type="text/css">
	<![CDATA[
		g.bars { fill: #f2f2f2; }
		g.text { fill: #cdcdcd; font-size: 14px; }
	]]>
	</style>
	<defs>
		<line id="border" x1="0" y1="20" x2="0" y2="932" stroke-width="1" stroke="#f2f2f2" fill="none" />
		<rect id="column" x="0" y="20" width="45" height="912"/>
	</defs>
	<!--<rect x="0" y="0" height="972" width="768" fill="none" stroke="black" />
	<rect x="0" y="932" height="40" width="768" fill="grey" />-->
	<g id="mainlayer">
		<use xlink:href="#border" transform="translate(24,0)" />
		<g class="bars" fill="#f2f2f2">
			<use xlink:href="#column" transform="translate(32,0)"/>
			<use xlink:href="#column" transform="translate(92,0)"/>
			<use xlink:href="#column" transform="translate(152,0)"/>
			<use xlink:href="#column" transform="translate(212,0)"/>
			<use xlink:href="#column" transform="translate(272,0)"/>
			<use xlink:href="#column" transform="translate(332,0)"/>
			<use xlink:href="#column" transform="translate(392,0)"/>
			<use xlink:href="#column" transform="translate(452,0)"/>
			<use xlink:href="#column" transform="translate(512,0)"/>
			<use xlink:href="#column" transform="translate(572,0)"/>
			<use xlink:href="#column" transform="translate(632,0)"/>
			<use xlink:href="#column" transform="translate(692,0)"/>
		</g>
		<use xlink:href="#border" transform="translate(745,0)" />
		
		<g class="text" fill="#cdcdcd" font-size="14px">
			<!-- pos: rect.x + (rect.width/2) - font-size / 2 -->
			<text x="47" y="14">01</text>
			<text x="107" y="14">02</text>
			<text x="167" y="14">03</text>
			<text x="227" y="14">04</text>
			<text x="287" y="14">05</text>
			<text x="347" y="14">06</text>
			<text x="407" y="14">07</text>
			<text x="467" y="14">08</text>
			<text x="527" y="14">09</text>
			<text x="587" y="14">10</text>
			<text x="647" y="14">11</text>
			<text x="707" y="14">12</text>
		</g>
	</g>
</svg>

