<?xml version="1.0" encoding="iso-8859-1" standalone="no"?>
<!DOCTYPE svg PUBLIC "-//W3C//DTD SVG 1.0//EN" "http://www.w3.org/TR/SVG/DTD/svg10.dtd">
<svg viewBox="0 0 1024 716" fill="none" width="100%" height="100%" xmlns="http://www.w3.org/2000/svg" xmlns:xlink="http://www.w3.org/1999/xlink">
	<style type="text/css">
	<![CDATA[
		g.bars { fill: #f2f2f2; }
		g.text { fill: #cdcdcd; font-size: 14px; }
	]]>
	</style>
	<g id="mainlayer">
		<!--<rect fill="white" stroke="black" x="0" y="0" width="768" height="972" />-->
		<line x1="32" y1="20" x2="32" y2="676" stroke-width="1" stroke="#cdcdcd" fill="none" stroke-dasharray="1, 8" />
		<g class="bars" fill="#f2f2f2">
			<rect x="42" y="20" width="60" height="656"/>
			<rect x="122" y="20" width="60" height="656"/>
			<rect x="202" y="20" width="60" height="656"/>
			<rect x="282" y="20" width="60" height="656"/>
			<rect x="362" y="20" width="60" height="656"/>
			<rect x="442" y="20" width="60" height="656"/>
			<rect x="522" y="20" width="60" height="656"/>
			<rect x="602" y="20" width="60" height="656"/>
			<rect x="682" y="20" width="60" height="656"/>
			<rect x="762" y="20" width="60" height="656"/>
			<rect x="842" y="20" width="60" height="656"/>
			<rect x="922" y="20" width="60" height="656"/>
		</g>
		<line x1="992" y1="20" x2="992" y2="676" stroke-width="1" stroke="#cdcdcd" fill="none" stroke-dasharray="1, 8" />
		<g class="text" fill="#cdcdcd" font-size="14px">
			<!-- pos: rect.x + (rect.width/2) - font-size / 2 -->
			<text x="65" y="14">01</text>
			<text x="145" y="14">02</text>
			<text x="225" y="14">03</text>
			<text x="305" y="14">04</text>
			<text x="385" y="14">05</text>
			<text x="465" y="14">06</text>
			<text x="545" y="14">07</text>
			<text x="625" y="14">08</text>
			<text x="705" y="14">09</text>
			<text x="785" y="14">10</text>
			<text x="865" y="14">11</text>
			<text x="945" y="14">12</text>
		</g>
	</g>
</svg>

