<?xml version="1.0" encoding="iso-8859-1" standalone="no"?>
<!DOCTYPE svg PUBLIC "-//W3C//DTD SVG 1.0//EN" "http://www.w3.org/TR/SVG/DTD/svg10.dtd">
<svg viewBox="0 0 768 972" width="100%" height="100%" xmlns="http://www.w3.org/2000/svg" xmlns:xlink="http://www.w3.org/1999/xlink">
	<style type="text/css">
	<![CDATA[
		g.bars { fill: #f2f2f2; }
		g.text { fill: #cdcdcd; font-size: 14px; }
	]]>
	</style>
	<g id="mainlayer">
		<!--<rect fill="white" stroke="black" x="0" y="0" width="768" height="972" />-->
		<g class="bars" fill="#f2f2f2">
			<rect x="32" y="20" width="45" height="912"/>
			<rect x="92" y="20" width="45" height="912"/>
			<rect x="152" y="20" width="45" height="912"/>
			<rect x="212" y="20" width="45" height="912"/>
			<rect x="272" y="20" width="45" height="912"/>
			<rect x="332" y="20" width="45" height="912"/>
			<rect x="392" y="20" width="45" height="912"/>
			<rect x="452" y="20" width="45" height="912"/>
			<rect x="512" y="20" width="45" height="912"/>
			<rect x="572" y="20" width="45" height="912"/>
			<rect x="632" y="20" width="45" height="912"/>
			<rect x="692" y="20" width="45" height="912"/>
		</g>
		<g class="text" fill="#cdcdcd" font-size="14px">
			<text x="48" y="14">01</text>
			<text x="108" y="14">02</text>
			<text x="168" y="14">03</text>
			<text x="228" y="14">04</text>
			<text x="288" y="14">05</text>
			<text x="348" y="14">06</text>
			<text x="408" y="14">07</text>
			<text x="468" y="14">08</text>
			<text x="528" y="14">09</text>
			<text x="586" y="14">10</text>
			<text x="646" y="14">11</text>
			<text x="706" y="14">12</text>
		</g>
	</g>
</svg>

