<?xml version="1.0" encoding="iso-8859-1" standalone="no"?>
<!-- Creative Common License BY-NC-SA 3.0 Copyright: Philip Mateescu (http://philipm.at/projects/goodnotes_templates.html) -->
<!DOCTYPE svg PUBLIC "-//W3C//DTD SVG 1.0//EN" "http://www.w3.org/TR/SVG/DTD/svg10.dtd">
<svg viewBox="0 0 768 972" width="100%" height="100%" xmlns="http://www.w3.org/2000/svg" xmlns:xlink="http://www.w3.org/1999/xlink">
	<style>
	<![CDATA[
		text { font-family: Helvetica Neue, Helvetica; font-weight: bold; }
		text.upper { text-transform: uppercase; }
	]]>
	</style>
	<defs>
		<rect id="screen" x="0" y="0" width="320" height="480" fill="white" stroke-width="0" />
		<g id="border">
			<rect x="0" y="0" width="326" height="525" fill="black" stroke="black" stroke-width="6" rx="6" ry="6" />
			<rect x="3" y="25" width="320" height="480" fill="none" stroke="#404040" />
			<!--<rect x="3" y="25" width="320" height="480" fill="none" stroke="red" />-->
		</g>
		<g  id="status-bar">
			<rect id="box" x="0" y="0" width="320" height="20" fill="#e4ebee" stroke-width="0" />
			<!--<line x1="160" x2="160" y1="0" y2="20" stroke="red" stroke-width="1" />-->
			<g id="battery" transform="translate(290,6)">
				<rect x="0" y="0" width="20" height="8" fill="#68d131" stroke-width="1" stroke="#868c99" />
				<rect x="20" y="2" width="2" height="4" fill="#868c99" stroke-width="0" />
			</g>
			<g id="hour" fill="#414141" font-size="13px">
				<text x="26" y="15">Carrier</text>
				<text x="140" y="15">2:58 PM</text>
			</g>
			<g id="signal" transform="translate(4,5)">
				<rect x="0" y="8" width="3" height="2" fill="#0c62ce" stroke-width="0" />
				<rect x="4" y="6" width="3" height="4" fill="#0c62ce" stroke-width="0" />
				<rect x="8" y="4" width="3" height="6" fill="#0c62ce" stroke-width="0" />
				<rect x="12" y="2" width="3" height="8" fill="#0c62ce" stroke-width="0" />
				<rect x="16" y="0" width="3" height="10" fill="#0c62ce" stroke-width="0" />
			</g>
		</g>
		<rect id="tool-bar" x="0" y="20" width="320" height="44" fill="#b0bccc" stroke-width="0" />
		<rect id="tab-bar" x="0" y="431" width="320" height="49" fill="black" stroke-width="0" />


		<g id="screen-portrait-simple">
			<use xlink:href="#screen" />
			<use xlink:href="#status-bar" />
		</g>

		<g id="screen-portrait-toolbar">
			<use xlink:href="#screen" />
			<use xlink:href="#status-bar" />
			<use xlink:href="#tool-bar" />
		</g>

		<g id="screen-portrait-tabbar">
			<use xlink:href="#screen" />
			<use xlink:href="#status-bar" />
			<use xlink:href="#tab-bar" />
		</g>

		<g id="screen-portrait-all">
			<use xlink:href="#screen" />
			<use xlink:href="#status-bar" />
			<use xlink:href="#tool-bar" />
			<use xlink:href="#tab-bar" />
		</g>
			
		<g id="iphone-portrait-all">
			<use xlink:href="#border" opacity="0.4"></use>
			<use xlink:href="#screen-portrait-all" transform="translate(3,25)"></use>
		</g>

		<g id="iphone-portrait-simple">
			<use xlink:href="#border" opacity="0.4"></use>
			<use xlink:href="#screen-portrait-simple" transform="translate(3,25)"></use>
		</g>
		
		<g id="iphone-portrait-toolbar">
			<use xlink:href="#border" opacity="0.4"></use>
			<use xlink:href="#screen-portrait-toolbar" transform="translate(3,25)"></use>
		</g>

		<g id="iphone-portrait-tabbar">
			<use xlink:href="#border" opacity="0.4"></use>
			<use xlink:href="#screen-portrait-tabbar" transform="translate(3,25)"></use>
		</g>
		
		
		<line id="gridx" x1="86" y1="93" x2="648" y2="93" stroke="#f2f2f2" stroke-width="2" stroke-dasharray="2 18" />
		<line id="gridy" x1="86" y1="93" x2="86" y2="843" stroke="#f2f2f2" stroke-width="2" stroke-dasharray="2 18" />
		<line id="ui-line-p" x1="86" y1="0" x2="648" y2="0" stroke="#f2f2f2" />
		<line id="ui-line-l" x1="0" y1="93" x2="0" y2="843" stroke="#f2f2f2" />
	</defs>
	
	<!--
	<rect x="0" y="0" height="972" width="768" fill="none" stroke="blue" stroke-width="1" />
	<rect x="0" y="932" height="40" width="768" fill="grey" />
	-->

	<g transform="translate(20,10)"><use xlink:href="#iphone-portrait-toolbar"></use></g>
	<g transform="translate(420,10)"><use xlink:href="#iphone-portrait-toolbar"></use></g>

</svg>
